<?xml version="1.0" standalone="no"?>
<!DOCTYPE svg PUBLIC "-//W3C//DTD SVG 20010904//EN"
 "http://www.w3.org/TR/2001/REC-SVG-20010904/DTD/svg10.dtd">
<svg version="1.0" xmlns="http://www.w3.org/2000/svg"
 width="752.000000pt" height="752.000000pt" viewBox="0 0 752.000000 752.000000"
 preserveAspectRatio="xMidYMid meet">
<metadata>
Created by potrace 1.14, written by Peter Selinger 2001-2017
</metadata>
<g transform="translate(0.000000,752.000000) scale(0.100000,-0.100000)"
fill="#000000" stroke="none">
<path d="M1741 7505 c-322 -70 -564 -284 -666 -588 -14 -42 -29 -96 -33 -120
-9 -52 -9 -6028 0 -6078 14 -80 67 -217 114 -297 105 -179 354 -362 541 -397
16 -3 55 -10 88 -15 41 -7 691 -10 2025 -8 1849 3 1968 5 2020 21 30 10 60 19
65 20 25 7 111 41 123 50 7 5 30 19 51 31 54 29 96 61 168 129 58 55 155 186
159 215 2 7 8 20 15 28 11 14 47 101 53 129 1 6 5 16 9 23 5 6 6 12 4 12 -3 0
2 28 9 63 11 51 13 582 11 3062 -1 1650 -6 3013 -10 3030 -24 88 -64 196 -89
236 -15 25 -28 51 -28 58 0 6 -4 11 -8 11 -5 0 -14 11 -20 25 -19 42 -152 173
-223 221 -90 60 -181 100 -292 129 l-92 24 -1965 0 c-1637 -1 -1976 -3 -2029
-14z m449 -148 c0 -5 4 -5 10 -2 9 6 94 9 115 5 6 -1 14 -2 18 -1 15 2 352 3
362 1 6 -1 15 -1 20 0 6 1 30 1 55 1 25 -1 72 -1 105 0 231 2 239 2 255 -21
14 -21 318 -326 1628 -1633 l543 -541 -1080 -1081 c-593 -594 -1083 -1089
-1089 -1100 -8 -17 -10 -52 -4 -90 4 -20 48 -61 80 -75 25 -10 109 -13 355
-13 177 0 349 3 383 6 133 15 261 64 367 141 55 39 650 625 1695 1669 l332
332 0 -2080 c-1 -2180 0 -2128 -43 -2240 -31 -83 -42 -105 -49 -105 -4 0 -8
-6 -8 -13 0 -19 -67 -107 -120 -156 -56 -54 -154 -121 -174 -121 -9 0 -16 -3
-16 -8 0 -8 -113 -48 -175 -60 -22 -5 -70 -8 -107 -8 -38 1 -68 -1 -68 -4 0
-3 -24 -4 -52 -2 -29 1 -73 2 -98 1 -25 0 -51 0 -57 0 -22 2 -35 2 -183 2 -80
0 -154 -1 -165 -1 -11 0 -156 0 -322 -1 -260 -1 -304 1 -318 14 -8 9 -15 19
-15 23 0 3 -283 288 -630 633 -346 344 -832 828 -1079 1074 l-449 449 1077
1076 c593 593 1083 1087 1089 1099 30 56 6 126 -56 161 -40 22 -45 22 -399 22
-379 -1 -413 -4 -548 -52 -33 -11 -77 -32 -97 -45 -21 -12 -42 -23 -48 -23 -5
0 -10 -4 -10 -9 0 -5 -10 -13 -22 -17 -19 -6 -375 -357 -1624 -1602 l-384
-383 0 2083 c1 1993 2 2086 19 2148 49 170 122 283 261 404 20 17 139 86 149
86 4 0 21 6 37 14 43 21 169 44 248 45 38 1 71 2 72 4 7 6 214 1 214 -6z
m2445 -1 c8 -3 15 -2 15 2 0 4 21 6 47 4 54 -2 110 -2 266 1 59 1 107 -2 107
-6 0 -5 4 -5 10 -2 9 6 94 9 115 5 6 -1 14 -2 18 -1 30 5 356 3 365 -3 6 -3
13 -2 17 4 4 6 10 8 14 6 4 -3 41 -8 83 -10 41 -3 94 -12 117 -20 22 -9 43
-16 46 -16 13 -2 83 -32 105 -45 14 -8 41 -23 60 -34 93 -52 220 -208 268
-331 49 -122 50 -142 51 -860 l1 -675 -107 107 c-60 59 -319 317 -578 573
-258 256 -653 648 -876 871 -224 222 -409 404 -413 404 -4 0 -14 6 -22 14 -12
13 -10 15 13 18 44 5 262 0 278 -6z m-2887 -5783 c303 -302 737 -733 964 -958
227 -226 424 -419 437 -428 14 -9 22 -19 19 -23 -6 -5 -656 -9 -683 -4 -5 2
-14 2 -20 0 -30 -6 -95 -4 -95 3 0 5 -5 5 -10 2 -6 -3 -52 -6 -103 -5 -122 1
-105 1 -252 0 -184 0 -233 5 -325 37 -46 16 -131 54 -140 63 -3 3 -23 17 -46
31 -95 62 -206 201 -253 319 -48 119 -49 144 -50 848 -1 364 0 662 2 662 2 0
252 -246 555 -547z"/>
</g>
</svg>
